<?xml version="1.0" standalone="no"?>
<!DOCTYPE svg PUBLIC "-//W3C//DTD SVG 20010904//EN"
 "http://www.w3.org/TR/2001/REC-SVG-20010904/DTD/svg10.dtd">
<svg version="1.0" xmlns="http://www.w3.org/2000/svg"
 width="1024.000000pt" height="1024.000000pt" viewBox="0 0 1024.000000 1024.000000"
 preserveAspectRatio="xMidYMid meet">

<g transform="translate(0.000000,1024.000000) scale(0.100000,-0.100000)"
fill="#dddddd" stroke="none">
<path d="M3020 9250 c-438 -14 -648 -50 -930 -161 -210 -82 -390 -201 -560
-369 -122 -120 -203 -225 -301 -392 -143 -241 -213 -435 -258 -718 -45 -282
-46 -313 -43 -2265 3 -1826 12 -2614 32 -2770 6 -44 13 -111 15 -148 13 -205
132 -530 271 -745 198 -305 491 -552 814 -685 203 -84 494 -150 655 -149 50 0
83 -4 87 -11 10 -17 4231 -23 4535 -7 325 17 541 54 759 131 95 33 233 99 262
125 9 8 63 45 119 82 196 129 353 286 493 496 158 236 257 518 296 841 22 193
24 271 31 1945 14 2849 13 2894 -39 3195 -34 197 -134 482 -234 665 -123 223
-341 463 -554 609 -283 193 -556 281 -1005 322 -144 13 -4050 21 -4445 9z
m4390 -271 c205 -15 410 -48 410 -66 0 -3 -56 -119 -124 -257 -306 -622 -534
-1084 -916 -1861 -73 -148 -213 -432 -310 -630 -364 -738 -490 -997 -490
-1010 0 -30 46 -42 190 -54 80 -6 217 -18 305 -26 88 -8 241 -22 340 -30 99
-8 304 -26 455 -40 151 -14 334 -30 405 -35 72 -5 180 -14 240 -20 271 -27
533 -50 680 -60 88 -6 196 -15 240 -20 44 -6 99 -10 123 -10 l43 0 -3 -944
c-2 -519 -6 -947 -9 -950 -3 -3 -55 14 -115 37 -115 46 -268 106 -469 183 -66
25 -169 65 -230 89 -60 24 -166 64 -235 90 -69 26 -177 67 -240 92 -63 24
-162 63 -220 85 -58 22 -154 60 -215 83 -60 24 -128 48 -150 55 -21 7 -64 24
-95 38 -30 13 -82 33 -115 44 -33 11 -88 33 -122 48 -34 16 -81 34 -103 40
-22 6 -77 27 -123 46 -45 20 -104 43 -131 51 -27 8 -72 25 -100 38 -28 12 -73
30 -100 39 -28 10 -93 34 -145 55 -121 49 -282 111 -389 150 -154 57 -144 65
-294 -244 -14 -27 -30 -59 -36 -70 -6 -11 -79 -157 -162 -325 -167 -339 -220
-419 -362 -555 -108 -103 -144 -130 -248 -191 -130 -76 -310 -142 -438 -160
-241 -35 -473 -14 -671 60 -128 48 -160 64 -260 126 -200 126 -382 337 -489
565 -87 188 -134 456 -114 653 19 182 58 322 130 467 138 278 353 489 626 614
111 51 126 56 246 88 100 26 116 28 325 27 136 0 275 -7 365 -17 80 -9 183
-19 230 -22 47 -3 167 -13 268 -21 217 -19 234 -16 250 49 5 23 15 74 22 112
7 39 31 169 55 290 23 121 64 330 90 465 25 135 66 346 91 470 75 387 124 641
144 750 11 58 31 161 45 230 14 69 30 152 34 185 8 53 33 181 112 575 12 58
25 125 30 150 6 25 21 108 34 185 29 163 41 221 56 278 l11 40 746 -7 c411 -4
808 -11 882 -17z"/>
<path d="M4140 4772 c-21 -22 -108 -104 -414 -387 -6 -6 -126 -116 -266 -245
-140 -129 -286 -264 -325 -301 -38 -36 -85 -79 -103 -95 -21 -19 -29 -33 -24
-42 9 -13 -5 -14 572 23 326 21 293 25 380 -45 41 -32 83 -66 93 -75 10 -8 38
-31 64 -51 25 -19 64 -50 87 -68 23 -18 70 -54 105 -82 35 -27 85 -67 112 -89
106 -87 117 -95 133 -95 9 0 16 4 16 9 0 23 -34 188 -61 296 -17 66 -39 163
-50 215 -10 52 -32 151 -49 220 -29 122 -94 407 -146 640 -41 183 -45 195 -74
197 -17 2 -34 -6 -50 -25z"/>
</g>
</svg>
